<?xml version="1.0" encoding="UTF-8" standalone="no"?>
<!DOCTYPE svg PUBLIC "-//W3C//DTD SVG 1.1//EN"
 "http://www.w3.org/Graphics/SVG/1.1/DTD/svg11.dtd">
<!-- Generated by graphviz version 2.38.0 (20140413.2041)
 -->
<!-- Title: G Pages: 1 -->
<svg width="493pt" height="304pt"
 viewBox="0.00 0.00 492.50 304.00" xmlns="http://www.w3.org/2000/svg" xmlns:xlink="http://www.w3.org/1999/xlink">
<g id="graph0" class="graph" transform="scale(1 1) rotate(0) translate(4 300)">
<title>G</title>
<!-- Throwable -->
<g id="node1" class="node"><title>Throwable</title>
<polygon fill="#f2f2f2" stroke="black" points="236,-0.5 236,-76.5 403,-76.5 403,-0.5 236,-0.5"/>
<text text-anchor="middle" x="319.5" y="-61.3" font-family="Bitstream Vera Sans" font-size="14.00">Throwable</text>
<polyline fill="none" stroke="black" points="236,-53.5 403,-53.5 "/>
<text text-anchor="start" x="244" y="-38.3" font-family="Bitstream Vera Sans" font-size="14.00">+ getMessage : string</text>
<text text-anchor="start" x="244" y="-23.3" font-family="Bitstream Vera Sans" font-size="14.00">+ getCode : int</text>
<text text-anchor="start" x="244" y="-8.3" font-family="Bitstream Vera Sans" font-size="14.00">...</text>
</g>
<!-- Error -->
<g id="node2" class="node"><title>Error</title>
<polygon fill="#f2f2f2" stroke="black" points="249.5,-113.5 249.5,-149.5 303.5,-149.5 303.5,-113.5 249.5,-113.5"/>
<text text-anchor="middle" x="276.5" y="-127.8" font-family="Bitstream Vera Sans" font-size="14.00">Error</text>
</g>
<!-- Error&#45;&gt;Throwable -->
<g id="edge2" class="edge"><title>Error&#45;&gt;Throwable</title>
<path fill="none" stroke="black" d="M284.588,-113.384C288.35,-105.421 293.025,-95.5276 297.718,-85.5963"/>
<polygon fill="black" stroke="black" points="300.899,-87.0561 302.007,-76.5193 294.57,-84.0654 300.899,-87.0561"/>
</g>
<!-- Exception -->
<g id="node3" class="node"><title>Exception</title>
<polygon fill="#f2f2f2" stroke="black" points="321.5,-113.5 321.5,-149.5 405.5,-149.5 405.5,-113.5 321.5,-113.5"/>
<text text-anchor="middle" x="363.5" y="-127.8" font-family="Bitstream Vera Sans" font-size="14.00">Exception</text>
</g>
<!-- Exception&#45;&gt;Throwable -->
<g id="edge1" class="edge"><title>Exception&#45;&gt;Throwable</title>
<path fill="none" stroke="black" d="M355.224,-113.384C351.374,-105.421 346.59,-95.5276 341.788,-85.5963"/>
<polygon fill="black" stroke="black" points="344.904,-83.9986 337.399,-76.5193 338.602,-87.0458 344.904,-83.9986"/>
</g>
<!-- ArithmeticError -->
<g id="node4" class="node"><title>ArithmeticError</title>
<polygon fill="#f2f2f2" stroke="black" points="16.5,-186.5 16.5,-222.5 140.5,-222.5 140.5,-186.5 16.5,-186.5"/>
<text text-anchor="middle" x="78.5" y="-200.8" font-family="Bitstream Vera Sans" font-size="14.00">ArithmeticError</text>
</g>
<!-- ArithmeticError&#45;&gt;Error -->
<g id="edge3" class="edge"><title>ArithmeticError&#45;&gt;Error</title>
<path fill="none" stroke="black" d="M125.926,-186.494C160.867,-173.964 207.699,-157.171 239.804,-145.659"/>
<polygon fill="black" stroke="black" points="241.033,-148.936 249.265,-142.266 238.671,-142.347 241.033,-148.936"/>
</g>
<!-- AssertionError -->
<g id="node5" class="node"><title>AssertionError</title>
<polygon fill="#f2f2f2" stroke="black" points="158.5,-186.5 158.5,-222.5 274.5,-222.5 274.5,-186.5 158.5,-186.5"/>
<text text-anchor="middle" x="216.5" y="-200.8" font-family="Bitstream Vera Sans" font-size="14.00">AssertionError</text>
</g>
<!-- AssertionError&#45;&gt;Error -->
<g id="edge4" class="edge"><title>AssertionError&#45;&gt;Error</title>
<path fill="none" stroke="black" d="M231.024,-186.313C238.394,-177.592 247.48,-166.84 255.588,-157.246"/>
<polygon fill="black" stroke="black" points="258.328,-159.426 262.109,-149.529 252.982,-154.908 258.328,-159.426"/>
</g>
<!-- DivisionByZeroError -->
<g id="node6" class="node"><title>DivisionByZeroError</title>
<polygon fill="#f2f2f2" stroke="black" points="0,-259.5 0,-295.5 157,-295.5 157,-259.5 0,-259.5"/>
<text text-anchor="middle" x="78.5" y="-273.8" font-family="Bitstream Vera Sans" font-size="14.00">DivisionByZeroError</text>
</g>
<!-- DivisionByZeroError&#45;&gt;ArithmeticError -->
<g id="edge5" class="edge"><title>DivisionByZeroError&#45;&gt;ArithmeticError</title>
<path fill="none" stroke="black" d="M78.5,-259.313C78.5,-251.289 78.5,-241.547 78.5,-232.569"/>
<polygon fill="black" stroke="black" points="82.0001,-232.529 78.5,-222.529 75.0001,-232.529 82.0001,-232.529"/>
</g>
<!-- ParseError -->
<g id="node7" class="node"><title>ParseError</title>
<polygon fill="#f2f2f2" stroke="black" points="292.5,-186.5 292.5,-222.5 382.5,-222.5 382.5,-186.5 292.5,-186.5"/>
<text text-anchor="middle" x="337.5" y="-200.8" font-family="Bitstream Vera Sans" font-size="14.00">ParseError</text>
</g>
<!-- ParseError&#45;&gt;Error -->
<g id="edge6" class="edge"><title>ParseError&#45;&gt;Error</title>
<path fill="none" stroke="black" d="M322.734,-186.313C315.241,-177.592 306.004,-166.84 297.761,-157.246"/>
<polygon fill="black" stroke="black" points="300.302,-154.833 291.13,-149.529 294.992,-159.395 300.302,-154.833"/>
</g>
<!-- TypeError -->
<g id="node8" class="node"><title>TypeError</title>
<polygon fill="#f2f2f2" stroke="black" points="400.5,-186.5 400.5,-222.5 484.5,-222.5 484.5,-186.5 400.5,-186.5"/>
<text text-anchor="middle" x="442.5" y="-200.8" font-family="Bitstream Vera Sans" font-size="14.00">TypeError</text>
</g>
<!-- TypeError&#45;&gt;Error -->
<g id="edge7" class="edge"><title>TypeError&#45;&gt;Error</title>
<path fill="none" stroke="black" d="M400.358,-186.927C376.876,-177.518 346.961,-165.245 312.8,-150.02"/>
<polygon fill="black" stroke="black" points="314.099,-146.767 303.542,-145.868 311.234,-153.154 314.099,-146.767"/>
</g>
</g>
</svg>
